# Blender 3.1.0
# www.blender.org
mtllib footey.mtl
o woodBaseboard
v -2.542013 0.000000 -3.263417
v -2.542013 0.135376 -3.263417
v -2.542013 0.135376 -3.252053
v -2.542013 0.000000 -3.252053
v -5.021564 0.135376 -3.252050
v -5.021564 -0.000000 -3.252050
v -5.021564 -0.000000 -3.263413
v -5.021564 0.135376 -3.263413
v -2.542013 0.136907 -3.263417
v -2.542013 0.136907 -3.249863
v -5.021564 0.136907 -3.249859
v -5.021564 0.136907 -3.263413
v -2.542013 0.144539 -3.263417
v -2.542013 0.144539 -3.249950
v -5.021564 0.144538 -3.249946
v -5.021564 0.144538 -3.263413
v -2.542013 0.146677 -3.263417
v -2.542013 0.146677 -3.253831
v -5.021564 0.146676 -3.253828
v -5.021564 0.146676 -3.263413
v -2.542013 0.140723 -3.247985
v -2.542013 0.140723 -3.263417
v -5.021564 0.140723 -3.263413
v -5.021564 0.140723 -3.247981
v 3.569556 0.000000 4.581078
v 3.569556 0.135376 4.581078
v 3.558192 0.135376 4.581078
v 3.558192 0.000000 4.581078
v 3.558161 0.135376 -3.263413
v 3.558161 -0.000001 -3.263413
v 3.569525 -0.000001 -3.263413
v 3.569525 0.135376 -3.263413
v 3.569556 0.136907 4.581078
v 3.556002 0.136907 4.581078
v 3.555970 0.136906 -3.263413
v 3.569525 0.136906 -3.263413
v 3.569556 0.144539 4.581078
v 3.556089 0.144539 4.581078
v 3.556058 0.144538 -3.263413
v 3.569525 0.144538 -3.263413
v 3.569556 0.146677 4.581078
v 3.559971 0.146677 4.581078
v 3.559940 0.146676 -3.263413
v 3.569525 0.146676 -3.263413
v 3.554124 0.140723 4.581078
v 3.569556 0.140723 4.581078
v 3.569525 0.140722 -3.263413
v 3.554093 0.140722 -3.263413
v 3.569558 0.000000 -3.263419
v 3.569558 0.115376 -3.263419
v 3.569558 0.115376 -3.252055
v 3.569558 0.000000 -3.252055
v 3.569558 0.116907 -3.263419
v 3.569558 0.116907 -3.249864
v 3.569558 0.124539 -3.263419
v 3.569558 0.124539 -3.249951
v 3.569558 0.126677 -3.263419
v 3.569558 0.126677 -3.253833
v 3.569558 0.120723 -3.247986
v 3.569558 0.120723 -3.263419
v -2.418622 0.115376 -2.562330
v -2.418622 -0.000000 -2.562330
v -2.429986 -0.000000 -2.562330
v -2.429987 0.115376 -2.562330
v -2.416431 0.116906 -2.562330
v -2.429987 0.116906 -2.562330
v -2.416519 0.124538 -2.562330
v -2.429987 0.124538 -2.562330
v -2.420400 0.126676 -2.562330
v -2.429987 0.126676 -2.562330
v -2.429987 0.120722 -2.562330
v -2.414554 0.120722 -2.562330
v -1.180075 0.115376 -3.546881
v -1.174538 0.115376 -3.541350
v -1.174538 -0.000000 -3.541350
v -1.180075 -0.000000 -3.546881
v -1.182266 0.116906 -3.544691
v -1.176728 0.116906 -3.539160
v -1.182178 0.124538 -3.544778
v -1.176641 0.124538 -3.539247
v -1.172760 0.126676 -3.543128
v -1.178297 0.126676 -3.548659
v -1.168711 0.126676 -3.558245
v -1.163174 0.126676 -3.552714
v -1.178606 0.120722 -3.537282
v -1.184144 0.120722 -3.542813
v -2.418622 0.115376 -3.543263
v -2.415004 0.115376 -3.546881
v -2.415005 -0.000000 -3.546881
v -2.418622 -0.000000 -3.543263
v -2.416431 0.116906 -3.541073
v -2.412814 0.116906 -3.544691
v -2.416519 0.124538 -3.541160
v -2.412901 0.124538 -3.544777
v -2.416782 0.126676 -3.548659
v -2.420400 0.126676 -3.545041
v -2.429987 0.126676 -3.554626
v -2.426369 0.126676 -3.558245
v -2.410936 0.120722 -3.542812
v -2.414554 0.120722 -3.539195
v -2.404137 -0.000000 -3.546881
v -2.404137 0.115376 -3.546881
v -2.404137 0.116906 -3.544690
v -2.404137 0.120722 -3.542812
v -2.404137 0.124538 -3.544777
v -2.404137 0.126676 -3.548659
v -2.404137 0.126676 -3.558245
v -2.418622 0.115376 -3.519415
v -2.416431 0.116906 -3.519415
v -2.418622 -0.000000 -3.519415
v -2.414554 0.120722 -3.519415
v -2.416519 0.124538 -3.519415
v -2.420400 0.126676 -3.519415
v -2.429986 0.126676 -3.519415
v -1.194503 -0.000000 -3.546881
v -1.194503 0.115376 -3.546881
v -1.194503 0.116906 -3.544691
v -1.194503 0.120722 -3.542813
v -1.194503 0.124538 -3.544778
v -1.194503 0.126676 -3.548659
v -1.194503 0.126676 -3.558245
v -1.174508 -0.000000 -3.521790
v -1.174509 0.115376 -3.521790
v -1.176699 0.116906 -3.521790
v -1.178577 0.120722 -3.521790
v -1.176612 0.124538 -3.521790
v -1.172730 0.126676 -3.521790
v -1.163145 0.126676 -3.521790
v 3.564863 0.115376 -3.252055
v 3.564863 0.000000 -3.252055
v 3.564863 0.124539 -3.249951
v 3.564863 0.116907 -3.249864
v 3.564863 0.120723 -3.247986
v 3.564863 0.126677 -3.253833
v 3.564863 0.126677 -3.263419
v -2.416431 0.116906 -2.570053
v -2.414554 0.120722 -2.570053
v -2.420400 0.126676 -2.570053
v -2.429987 0.126676 -2.570053
v -2.418622 0.115376 -2.570053
v -2.418623 -0.000000 -2.570053
v -2.416519 0.124538 -2.570053
v -0.757280 0.116907 -3.249856
v -0.755402 0.120722 -3.247977
v -0.761249 0.126676 -3.253824
v -0.770834 0.126676 -3.263410
v -0.759471 0.115376 -3.252046
v -0.759471 -0.000000 -3.252046
v -0.757367 0.124538 -3.249943
v -0.757280 0.116907 -3.134036
v -0.768306 0.116907 -3.123006
v -0.766428 0.120722 -3.121128
v -0.755402 0.120722 -3.132158
v -0.772274 0.126676 -3.126975
v -0.761249 0.126676 -3.138005
v -0.781860 0.126676 -3.136560
v -0.770834 0.126676 -3.147590
v -0.759471 0.115376 -3.136227
v -0.770496 0.115376 -3.125197
v -0.759471 -0.000000 -3.136227
v -0.770496 -0.000000 -3.125197
v -0.757367 0.124538 -3.134123
v -0.768393 0.124538 -3.123093
v -1.162544 0.115376 -3.125092
v -1.174275 0.115376 -3.136810
v -1.162544 -0.000000 -3.125092
v -1.174275 -0.000000 -3.136810
v -1.164735 0.116906 -3.122900
v -1.176466 0.116906 -3.134619
v -1.164648 0.124538 -3.122988
v -1.176378 0.124538 -3.134706
v -1.172497 0.126676 -3.138588
v -1.160766 0.126676 -3.126869
v -1.162911 0.126676 -3.148174
v -1.151180 0.126676 -3.136455
v -1.178344 0.120722 -3.132741
v -1.166613 0.120722 -3.121022
v -2.430398 0.000000 4.272763
v -2.430398 0.135376 4.272763
v -2.419034 0.135376 4.272763
v -2.419034 0.000000 4.272763
v -2.419034 0.135376 4.925274
v -2.419034 -0.000000 4.925274
v -2.430398 -0.000000 4.925274
v -2.430398 0.135376 4.925274
v -2.430398 0.136907 4.272763
v -2.416843 0.136907 4.272763
v -2.416843 0.136907 4.925274
v -2.430398 0.136907 4.925274
v -2.430398 0.144538 4.272763
v -2.416930 0.144538 4.272763
v -2.416930 0.144538 4.925274
v -2.430398 0.144538 4.925274
v -2.430398 0.146677 4.272763
v -2.420812 0.146677 4.272763
v -2.420812 0.146676 4.925274
v -2.430398 0.146676 4.925274
v -2.414965 0.140723 4.272763
v -2.430398 0.140723 4.272763
v -2.430398 0.140722 4.925274
v -2.414965 0.140722 4.925274
v -2.430398 0.135376 -1.359632
v -2.419034 0.000000 -1.359632
v -2.419034 0.135376 3.190087
v -2.419034 -0.000000 3.190087
v -2.430398 -0.000000 3.190087
v -2.430398 0.135376 3.190087
v -2.430398 0.136907 -1.359632
v -2.416844 0.136906 3.190087
v -2.430398 0.136906 3.190087
v -2.430398 0.144539 -1.359632
v -2.416931 0.144539 -1.359632
v -2.416931 0.144538 3.190087
v -2.430398 0.144538 3.190087
v -2.430398 0.146677 -1.359632
v -2.420812 0.146676 3.190087
v -2.430398 0.146676 3.190087
v -2.414965 0.140723 -1.359632
v -2.430398 0.140723 -1.359632
v -2.430398 0.140722 3.190087
v -2.414965 0.140722 3.190087
v -2.430398 0.000000 -1.359632
v -2.419034 0.135376 -1.359632
v -2.416844 0.136907 -1.359632
v -2.420812 0.146677 -1.359632
vn 1.0533 -0.0000 -0.0000
vn -0.0000 -0.0000 2.5000
vn -1.0533 -0.0000 -0.0000
vn -0.0000 -2.0493 1.4320
vn -0.0000 1.1447 2.2226
vn -0.0000 2.5000 -0.0000
vn -0.0000 2.1897 1.2063
vn -0.0000 -1.1040 2.2430
vn -0.0000 -0.0000 -2.5000
vn -0.0000 -0.0004 2.5000
vn -0.2975 -2.3982 -0.0000
vn -0.6669 1.9351 -0.0000
vn -0.2381 2.4353 -0.0000
vn -0.6849 -1.8992 -0.0000
vn -0.0000 1.1446 2.2226
vn 0.2381 2.4353 -0.0000
vn -1.0533 -0.0000 0.0036
vn 0.0001 -1.1040 2.2430
vn -0.0000 2.1898 1.2062
vn 0.6670 1.9349 -0.0000
vn 0.0001 2.1897 1.2063
vn 0.2975 -2.3982 -0.0000
vn 0.0001 1.1447 2.2226
vn -0.0000 0.0001 2.5000
vn 1.0533 -0.0000 -0.0002
vn -0.0000 -2.0492 1.4320
vn 0.6849 -1.8992 -0.0000
vn 0.6851 -1.8989 -0.0000
vn -0.4086 -0.0000 2.3043
vn -0.1449 -2.3375 0.8171
vn -0.2964 1.7207 1.6716
vn -0.1170 2.3952 0.6601
vn -0.3027 -1.6793 1.7070
vn -1.0533 -0.0000 0.0089
vn 0.4090 -0.0000 2.3039
vn 0.1450 -2.3376 0.8167
vn 0.2966 1.7210 1.6710
vn 0.1171 2.3953 0.6597
vn 0.3029 -1.6795 1.7065
vn 0.0001 -0.0000 2.5000
vn -0.2973 -2.3983 0.0026
vn -0.2380 2.4354 0.0020
vn -0.6666 1.9356 0.0066
vn -0.6846 -1.8998 0.0068
vn 0.0001 -2.0493 1.4319
vn 0.6669 1.9351 -0.0000
vn -0.6668 1.9352 0.0023
vn -0.2381 2.4353 0.0008
vn 0.3030 -1.6799 1.7061
vn 0.1171 2.3953 0.6596
vn 0.2967 1.7213 1.6707
vn 0.1450 -2.3377 0.8166
vn 0.4091 -0.0000 2.3037
vn -0.6849 -1.8994 0.0023
vn -0.3027 -1.6794 1.7069
vn -0.1171 2.3952 0.6601
vn -0.2964 1.7208 1.6715
vn -0.4086 -0.0000 2.3042
vn -0.2974 -2.3983 0.0010
vn -0.0000 -0.0005 -2.5000
vn 0.6669 1.9350 -0.0000
vn -0.0000 -0.0005 2.5000
vn -0.0000 0.0005 2.5000
vn -0.0000 0.0004 2.5000
vt -0.164650 -0.697437
vt -0.023961 -0.697356
vt -0.030126 -0.690673
vt -0.158493 -0.690753
vt -0.030170 3.710626
vt -0.158547 3.710547
vt -0.164766 3.717233
vt -0.023961 3.717391
vt -0.023961 -0.697356
vt -0.030126 -0.690673
vt -0.030170 3.710626
vt -0.023961 3.717391
vt -0.023961 -0.697356
vt -0.030126 -0.690673
vt -0.030170 3.710626
vt -0.023961 3.717391
vt -0.023961 -0.697356
vt -0.030126 -0.690673
vt -0.030170 3.710626
vt -0.023961 3.717391
vt -0.030126 -0.690673
vt -0.023961 -0.697356
vt -0.023961 3.717391
vt -0.030170 3.710626
vt -0.164650 -0.697437
vt -0.023961 -0.697356
vt -0.030126 -0.690673
vt -0.158493 -0.690753
vt -0.030170 3.710626
vt -0.158547 3.710547
vt -0.164766 3.717233
vt -0.023961 3.717391
vt -0.023961 -0.697356
vt -0.030126 -0.690673
vt -0.030170 3.710626
vt -0.023961 3.717391
vt -0.023961 -0.697356
vt -0.030126 -0.690673
vt -0.030170 3.710626
vt -0.023961 3.717391
vt -0.023961 -0.697356
vt -0.030126 -0.690673
vt -0.030170 3.710626
vt -0.023961 3.717391
vt -0.030126 -0.690673
vt -0.023961 -0.697356
vt -0.023961 3.717391
vt -0.030170 3.710626
vt 0.052704 1.313563
vt 0.155109 1.313563
vt 0.155109 1.323649
vt 0.155400 -2.922886
vt 0.052704 1.323649
vt 0.053026 -2.922886
vt 0.156468 1.313563
vt 0.156468 1.325593
vt 0.157771 -2.922887
vt 0.163242 1.313563
vt 0.163242 1.325516
vt 0.165354 -2.922887
vt 0.165140 1.313563
vt 0.177793 -2.922887
vt 0.165140 1.322071
vt 0.169286 -2.922887
vt 0.159855 1.327260
vt 0.161545 -2.922887
vt 0.159855 1.313563
vt 0.155110 1.334379
vt 0.155011 1.284313
vt 0.052704 1.334379
vt 0.052606 1.284311
vt 0.052704 1.344466
vt 0.155110 1.344466
vt 0.156468 1.332435
vt 0.157385 1.284314
vt 0.156468 1.344466
vt 0.164973 1.284314
vt 0.163242 1.332512
vt 0.163242 1.344466
vt 0.168907 1.284314
vt 0.165140 1.335957
vt 0.177415 1.284313
vt 0.165140 1.344466
vt 0.159855 1.344466
vt 0.159855 1.330768
vt 0.161162 1.284314
vt 0.155110 1.310051
vt 0.155426 0.267501
vt 0.155110 1.303105
vt 0.155977 1.252566
vt 0.052704 1.303100
vt 0.053573 1.252566
vt 0.052704 1.310047
vt 0.053014 0.267505
vt 0.158177 1.310053
vt 0.157799 0.269446
vt 0.158177 1.303106
vt 0.158351 1.250625
vt 0.166493 1.310053
vt 0.165384 0.269368
vt 0.166493 1.303107
vt 0.165935 1.250703
vt 0.171722 1.303104
vt 0.169871 1.254144
vt 0.171722 1.310050
vt 0.169317 0.265923
vt 0.183754 1.310044
vt 0.177826 0.257414
vt 0.178389 1.262641
vt 0.183754 1.303097
vt 0.162304 1.303108
vt 0.162126 1.248961
vt 0.162303 1.310054
vt 0.161574 0.271113
vt 0.155111 1.299587
vt 0.155018 0.413668
vt 0.155111 1.295046
vt 0.155458 1.274908
vt 0.052704 1.295048
vt 0.053048 1.274915
vt 0.052704 1.299589
vt 0.052614 0.413667
vt 0.158178 1.299588
vt 0.157390 0.415612
vt 0.157827 1.272961
vt 0.158178 1.295047
vt 0.166494 1.299588
vt 0.164974 0.415535
vt 0.165398 1.273034
vt 0.166494 1.295047
vt 0.169326 1.276476
vt 0.171723 1.295047
vt 0.171723 1.299587
vt 0.168907 0.412090
vt 0.183755 1.299589
vt 0.177416 0.403582
vt 0.177826 1.284975
vt 0.183756 1.295047
vt 0.161595 1.271293
vt 0.162304 1.295047
vt 0.162304 1.299588
vt 0.161164 0.417279
vt 0.053047 1.265268
vt 0.155459 1.265265
vt 0.157823 1.265266
vt 0.161595 1.265266
vt 0.165391 1.265265
vt 0.169325 1.265263
vt 0.177825 1.265263
vt 0.155018 0.434835
vt 0.157390 0.434835
vt 0.052614 0.434834
vt 0.161164 0.434835
vt 0.164974 0.434835
vt 0.168907 0.434835
vt 0.177416 0.434835
vt 0.053014 0.280312
vt 0.155427 0.280309
vt 0.157799 0.280308
vt 0.161574 0.280308
vt 0.165384 0.280308
vt 0.169317 0.280308
vt 0.177826 0.280308
vt 0.053573 1.235204
vt 0.155978 1.235204
vt 0.158351 1.235207
vt 0.162128 1.235209
vt 0.165939 1.235207
vt 0.169874 1.235203
vt 0.178382 1.235195
vt 0.155400 -2.918720
vt 0.053026 -2.918720
vt 0.165354 -2.918720
vt 0.157771 -2.918720
vt 0.161545 -2.918720
vt 0.169287 -2.918720
vt 0.177793 -2.918721
vt 0.157386 1.277456
vt 0.161165 1.277457
vt 0.168907 1.277458
vt 0.177415 1.277458
vt 0.155010 1.277457
vt 0.052606 1.277456
vt 0.164972 1.277458
vt 0.157940 0.908625
vt 0.161727 0.909000
vt 0.169441 0.907949
vt 0.177916 0.906173
vt 0.155392 0.908209
vt 0.053015 0.908210
vt 0.165543 0.908656
vt 0.157940 0.908625
vt 0.157946 0.918697
vt 0.161742 0.918973
vt 0.161727 0.909000
vt 0.169502 0.918233
vt 0.169441 0.907949
vt 0.178080 0.917010
vt 0.177916 0.906173
vt 0.155392 0.908209
vt 0.155385 0.918398
vt 0.053015 0.908210
vt 0.053006 0.918399
vt 0.165543 0.908656
vt 0.165568 0.918731
vt 0.155116 1.280702
vt 0.147426 1.000925
vt 0.155976 0.998725
vt 0.155979 1.005713
vt 0.052713 1.280697
vt 0.053573 0.998725
vt 0.053573 1.005713
vt 0.158169 1.280828
vt 0.153758 0.997423
vt 0.149806 0.999015
vt 0.158358 1.003793
vt 0.166465 1.280824
vt 0.175080 0.999432
vt 0.170718 0.997556
vt 0.165950 1.003873
vt 0.169891 1.007278
vt 0.171655 1.280599
vt 0.179021 1.002816
vt 0.180313 1.003712
vt 0.178417 1.015687
vt 0.183577 1.280004
vt 0.188839 1.012066
vt 0.162138 1.002148
vt 0.162286 1.280934
vt 0.157537 0.995775
vt 0.166906 0.995829
vt -0.164650 -0.697437
vt -0.023961 -0.697356
vt 0.000000 0.000000
vt -0.030126 -0.690673
vt -0.158493 -0.690753
vt -0.030170 3.710626
vt -0.158547 3.710547
vt -0.164766 3.717233
vt -0.023961 3.717391
vt -0.023961 -0.697356
vt -0.030126 -0.690673
vt -0.030170 3.710626
vt -0.023961 3.717391
vt -0.023961 -0.697356
vt -0.023961 -0.697356
vt -0.030126 -0.690673
vt -0.030170 3.710626
vt -0.023961 3.717391
vt -0.023961 -0.697356
vt -0.023961 -0.697356
vt -0.030126 -0.690673
vt -0.030170 3.710626
vt -0.023961 3.717391
vt -0.023961 -0.697356
vt -0.030126 -0.690673
vt -0.023961 -0.697356
vt -0.023961 3.717391
vt -0.023961 -0.697356
vt -0.030170 3.710626
vt 0.000000 0.000000
vt -0.023961 -0.697356
vt -0.158493 -0.690753
vt -0.030170 3.710626
vt -0.158547 3.710547
vt -0.164766 3.717233
vt -0.023961 3.717391
vt -0.023961 -0.697356
vt -0.030170 3.710626
vt -0.023961 3.717391
vt -0.023961 -0.697356
vt -0.023961 -0.697356
vt -0.030126 -0.690673
vt -0.030170 3.710626
vt -0.023961 3.717391
vt -0.023961 -0.697356
vt -0.023961 -0.697356
vt -0.030170 3.710626
vt -0.023961 3.717391
vt -0.023961 -0.697356
vt -0.030126 -0.690673
vt -0.023961 -0.697356
vt -0.023961 3.717391
vt -0.023961 -0.697356
vt -0.030170 3.710626
vt -0.164650 -0.697437
vt -0.030126 -0.690673
vt -0.030126 -0.690673
vt -0.030126 -0.690673
s 0
usemtl woodPlanks
f 1/1/1 2/2/1 3/3/1 4/4/1
f 4/4/2 3/3/2 5/5/2 6/6/2
f 3/3/1 2/2/1 9/9/1 10/10/1
f 6/6/3 5/5/3 8/8/3 7/7/3
f 21/21/1 22/22/1 13/13/1 14/14/1
f 8/8/3 5/5/3 11/11/3 12/12/3
f 5/5/4 3/3/4 10/10/4 11/11/4
f 14/14/1 13/13/1 17/17/1 18/18/1
f 23/23/3 24/24/3 15/15/3 16/16/3
f 24/24/5 21/21/5 14/14/5 15/15/5
f 18/18/6 17/17/6 20/20/6 19/19/6
f 16/16/3 15/15/3 19/19/3 20/20/3
f 15/15/7 14/14/7 18/18/7 19/19/7
f 10/10/1 9/9/1 22/22/1 21/21/1
f 12/12/3 11/11/3 24/24/3 23/23/3
f 11/11/8 10/10/8 21/21/8 24/24/8
f 25/25/2 26/26/2 27/27/2 28/28/2
f 28/28/3 27/27/3 29/29/3 30/30/3
f 27/27/2 26/26/2 33/33/2 34/34/2
f 30/30/9 29/29/9 32/32/9 31/31/9
f 45/45/10 46/46/10 37/37/10 38/38/10
f 32/32/9 29/29/9 35/35/9 36/36/9
f 29/29/11 27/27/11 34/34/11 35/35/11
f 38/38/2 37/37/2 41/41/2 42/42/2
f 47/47/9 48/48/9 39/39/9 40/40/9
f 48/48/12 45/45/12 38/38/12 39/39/12
f 42/42/6 41/41/6 44/44/6 43/43/6
f 40/40/9 39/39/9 43/43/9 44/44/9
f 39/39/13 38/38/13 42/42/13 43/43/13
f 34/34/2 33/33/2 46/46/2 45/45/2
f 36/36/9 35/35/9 48/48/9 47/47/9
f 35/35/14 34/34/14 45/45/14 48/48/14
f 49/49/1 50/50/1 51/51/1 52/53/1
f 129/171/4 51/52/4 54/57/4 132/174/4
f 51/51/1 50/50/1 53/55/1 54/56/1
f 127/169/6 128/170/6 84/109/6 81/104/6
f 59/65/1 60/67/1 55/58/1 56/59/1
f 104/146/15 105/147/15 94/129/15 99/139/15
f 56/59/1 55/58/1 57/61/1 58/63/1
f 142/184/16 138/180/16 69/80/16 67/77/16
f 167/212/17 165/209/17 123/165/17 122/164/17
f 54/56/1 53/55/1 60/67/1 59/65/1
f 168/213/18 151/193/18 152/194/18 177/229/18
f 138/180/6 139/181/6 70/82/6 69/80/6
f 133/175/5 59/66/5 56/60/5 131/173/5
f 131/173/19 56/60/19 58/64/19 134/176/19
f 154/196/6 156/198/6 175/226/6 173/222/6
f 132/174/8 54/57/8 59/66/8 133/175/8
f 106/148/6 107/149/6 98/137/6 95/131/6
f 137/179/20 142/184/20 67/77/20 72/86/20
f 103/145/8 104/146/8 99/139/8 92/125/8
f 170/217/21 163/205/21 154/196/21 173/222/21
f 140/182/22 136/178/22 65/75/22 61/69/22
f 177/229/23 152/194/23 163/205/23 170/217/23
f 62/70/2 61/68/2 64/73/2 63/72/2
f 64/73/2 61/68/2 65/74/2 66/76/2
f 71/84/2 72/85/2 67/78/2 68/79/2
f 68/79/24 67/78/24 69/81/24 70/83/24
f 66/76/2 65/74/2 72/85/2 71/84/2
f 105/147/7 106/148/7 95/131/7 94/129/7
f 141/183/25 140/182/25 61/69/25 62/71/25
f 102/144/26 103/145/26 92/125/26 88/118/26
f 172/221/6 174/225/6 128/170/6 127/169/6
f 150/192/27 143/185/27 144/186/27 153/195/27
f 145/187/6 146/188/6 157/199/6 155/197/6
f 136/178/28 137/179/28 72/86/28 65/75/28
f 73/87/29 76/93/29 75/91/29 74/89/29
f 74/89/30 78/97/30 77/95/30 73/87/30
f 85/111/31 80/101/31 79/99/31 86/113/31
f 81/103/6 84/110/6 83/107/6 82/105/6
f 80/101/32 81/103/32 82/105/32 79/99/32
f 86/113/33 77/95/33 78/97/33 85/111/33
f 122/164/34 123/165/34 74/90/34 75/92/34
f 87/115/35 90/121/35 89/119/35 88/117/35
f 88/117/36 92/126/36 91/123/36 87/115/36
f 99/140/37 94/130/37 93/127/37 100/141/37
f 95/132/6 98/138/6 97/135/6 96/133/6
f 94/130/38 95/132/38 96/133/38 93/127/38
f 100/141/39 91/123/39 92/126/39 99/140/39
f 101/143/2 102/144/2 88/118/2 89/120/2
f 115/157/2 116/158/2 102/144/2 101/143/2
f 116/158/26 117/159/26 103/145/26 102/144/26
f 119/161/7 120/162/7 106/148/7 105/147/7
f 117/159/8 118/160/8 104/146/8 103/145/8
f 120/162/6 121/163/6 107/149/6 106/148/6
f 118/160/15 119/161/15 105/147/15 104/146/15
f 91/124/28 100/142/28 111/153/28 109/151/28
f 90/122/1 87/116/1 108/150/1 110/152/1
f 87/116/22 91/124/22 109/151/22 108/150/22
f 100/142/20 93/128/20 112/154/20 111/153/20
f 96/134/6 97/136/6 114/156/6 113/155/6
f 93/128/16 96/134/16 113/155/16 112/154/16
f 86/114/15 79/100/15 119/161/15 118/160/15
f 82/106/6 83/108/6 121/163/6 120/162/6
f 77/96/8 86/114/8 118/160/8 117/159/8
f 79/100/7 82/106/7 120/162/7 119/161/7
f 73/88/26 77/96/26 117/159/26 116/158/26
f 76/94/2 73/88/2 116/158/2 115/157/2
f 161/203/40 159/201/40 164/206/40 166/210/40
f 74/90/41 123/165/41 124/166/41 78/98/41
f 80/102/42 126/168/42 127/169/42 81/104/42
f 85/112/43 125/167/43 126/168/43 80/102/43
f 78/98/44 124/166/44 125/167/44 85/112/44
f 164/206/45 159/201/45 151/193/45 168/213/45
f 58/64/6 57/62/6 135/177/6 134/176/6
f 52/54/2 51/52/2 129/171/2 130/172/2
f 143/185/8 132/174/8 133/175/8 144/186/8
f 149/191/7 131/173/7 134/176/7 145/187/7
f 144/186/5 133/175/5 131/173/5 149/191/5
f 147/189/4 129/171/4 132/174/4 143/185/4
f 109/151/28 111/153/28 137/179/28 136/178/28
f 110/152/1 108/150/1 140/182/1 141/183/1
f 108/150/22 109/151/22 136/178/22 140/182/22
f 111/153/20 112/154/20 142/184/20 137/179/20
f 113/155/6 114/156/6 139/181/6 138/180/6
f 112/154/16 113/155/16 138/180/16 142/184/16
f 153/195/46 144/186/46 149/191/46 162/204/46
f 125/167/47 176/228/47 171/220/47 126/168/47
f 126/168/48 171/220/48 172/221/48 127/169/48
f 134/176/6 135/177/6 146/188/6 145/187/6
f 130/172/2 129/171/2 147/189/2 148/190/2
f 148/190/1 147/189/1 158/200/1 160/202/1
f 162/204/16 149/191/16 145/187/16 155/197/16
f 158/200/22 147/189/22 143/185/22 150/192/22
f 150/192/49 153/195/49 152/194/49 151/193/49
f 162/204/50 155/197/50 154/196/50 163/205/50
f 153/195/51 162/204/51 163/205/51 152/194/51
f 158/200/52 150/192/52 151/193/52 159/201/52
f 156/198/6 154/196/6 155/197/6 157/199/6
f 159/201/53 161/203/53 160/202/53 158/200/53
f 124/166/54 169/216/54 176/228/54 125/167/54
f 176/228/55 169/216/55 168/214/55 177/230/55
f 172/221/56 171/220/56 170/218/56 173/223/56
f 174/225/6 172/221/6 173/224/6 175/227/6
f 171/220/57 176/228/57 177/231/57 170/219/57
f 169/216/30 165/209/30 164/207/30 168/215/30
f 165/209/58 167/212/58 166/211/58 164/208/58
f 123/165/59 165/209/59 169/216/59 124/166/59
f 178/232/9 179/233/9 180/235/9 181/236/9
f 181/236/1 180/235/1 182/237/1 183/238/1
f 180/235/9 179/233/9 186/241/9 187/242/9
f 183/238/2 182/237/2 185/240/2 184/239/2
f 198/256/9 199/257/9 190/246/9 191/247/9
f 185/240/2 182/237/2 188/243/2 189/244/2
f 179/234/3 185/240/3 189/245/3 186/241/3
f 182/237/22 180/235/22 187/242/22 188/243/22
f 191/247/60 190/246/60 194/251/60 195/252/60
f 200/258/2 201/260/2 192/248/2 193/249/2
f 199/257/3 200/259/3 193/250/3 190/246/3
f 201/260/61 198/256/61 191/247/61 192/248/61
f 195/252/6 194/251/6 197/254/6 196/253/6
f 193/249/62 192/248/62 196/253/62 197/254/62
f 190/246/3 193/250/3 197/255/3 194/251/3
f 192/248/16 191/247/16 195/252/16 196/253/16
f 187/242/9 186/241/9 199/257/9 198/256/9
f 189/244/2 188/243/2 201/260/2 200/258/2
f 186/241/3 189/245/3 200/259/3 199/257/3
f 188/243/27 187/242/27 198/256/27 201/260/27
f 225/289/6 215/277/6 217/279/6 216/278/6
f 213/274/16 212/273/16 225/289/16 216/278/16
f 205/265/2 204/264/2 207/267/2 206/266/2
f 204/264/22 223/287/22 224/288/22 209/269/22
f 207/267/2 204/264/2 209/269/2 210/270/2
f 202/261/3 207/267/3 210/271/3 208/268/3
f 220/283/10 221/285/10 213/274/10 214/275/10
f 219/282/3 220/284/3 214/276/3 211/272/3
f 221/285/61 218/281/61 212/273/61 213/274/61
f 214/275/63 213/274/63 216/278/63 217/279/63
f 211/272/3 214/276/3 217/280/3 215/277/3
f 222/286/9 202/262/9 208/268/9 219/282/9 211/272/9 215/277/9 225/289/9 212/273/9 218/281/9 224/288/9 223/287/9 203/263/9
f 210/270/64 209/269/64 221/285/64 220/283/64
f 208/268/3 210/271/3 220/284/3 219/282/3
f 203/263/1 223/287/1 204/264/1 205/265/1
f 209/269/27 224/288/27 218/281/27 221/285/27
